<svg data-v-423bf9ae="" xmlns="http://www.w3.org/2000/svg" viewBox="0 0 266.177613632874 163" class="iconAbove"><!----><!----><!----><g data-v-423bf9ae="" id="4ef2db70-d921-4f1e-bc6e-d9698aefaecb" fill="#666057" transform="matrix(4.633204936981201,0,0,4.633204936981201,-7.8301262855529785,86.1351318359375)"><path d="M4.24 13.92L4.24 13.92L4.24 13.92Q3.53 13.92 2.85 13.57L2.85 13.57L2.85 13.57Q2.17 13.23 1.69 12.67L1.69 12.67L2.38 12.07L2.38 12.07Q3.23 13.05 4.33 13.05L4.33 13.05L4.33 13.05Q4.97 13.05 5.39 12.78L5.39 12.78L5.39 12.78Q5.81 12.50 5.81 12.01L5.81 12.01L5.81 12.01Q5.81 11.70 5.66 11.46L5.66 11.46L5.66 11.46Q5.52 11.21 5.20 11.01L5.20 11.01L5.20 11.01Q4.89 10.81 4.64 10.70L4.64 10.70L4.64 10.70Q4.40 10.58 3.95 10.42L3.95 10.42L3.95 10.42Q3.42 10.21 3.09 10.04L3.09 10.04L3.09 10.04Q2.76 9.87 2.41 9.62L2.41 9.62L2.41 9.62Q2.06 9.37 1.89 9.02L1.89 9.02L1.89 9.02Q1.72 8.68 1.72 8.25L1.72 8.25L1.72 8.25Q1.72 7.43 2.39 6.93L2.39 6.93L2.39 6.93Q3.07 6.43 4.12 6.43L4.12 6.43L4.12 6.43Q5.59 6.43 6.52 7.52L6.52 7.52L5.88 8.06L5.88 8.06Q5.08 7.29 4.09 7.29L4.09 7.29L4.09 7.29Q3.43 7.29 3.04 7.55L3.04 7.55L3.04 7.55Q2.65 7.80 2.65 8.23L2.65 8.23L2.65 8.23Q2.65 8.44 2.75 8.62L2.75 8.62L2.75 8.62Q2.86 8.81 2.98 8.93L2.98 8.93L2.98 8.93Q3.11 9.04 3.39 9.19L3.39 9.19L3.39 9.19Q3.67 9.34 3.84 9.40L3.84 9.40L3.84 9.40Q4.00 9.46 4.37 9.60L4.37 9.60L4.37 9.60Q4.93 9.81 5.23 9.96L5.23 9.96L5.23 9.96Q5.53 10.11 5.94 10.39L5.94 10.39L5.94 10.39Q6.36 10.67 6.54 11.05L6.54 11.05L6.54 11.05Q6.73 11.44 6.73 11.96L6.73 11.96L6.73 11.96Q6.73 12.85 6.06 13.38L6.06 13.38L6.06 13.38Q5.39 13.92 4.24 13.92ZM15.90 13.75L14.83 13.75L12.52 9.18L11.14 10.64L11.14 13.75L10.16 13.75L10.16 4.12L11.14 3.64L11.14 9.48L13.82 6.59L14.95 6.59L13.20 8.46L15.90 13.75ZM22.25 4.94L22.25 4.94L22.25 4.94Q22.06 5.12 21.78 5.12L21.78 5.12L21.78 5.12Q21.50 5.12 21.32 4.94L21.32 4.94L21.32 4.94Q21.14 4.76 21.14 4.48L21.14 4.48L21.14 4.48Q21.14 4.20 21.33 4.00L21.33 4.00L21.33 4.00Q21.52 3.81 21.78 3.81L21.78 3.81L21.78 3.81Q22.06 3.81 22.25 4.00L22.25 4.00L22.25 4.00Q22.43 4.20 22.43 4.48L22.43 4.48L22.43 4.48Q22.43 4.76 22.25 4.94ZM22.27 6.59L22.27 12.87L24.25 12.87L24.25 13.75L19.32 13.75L19.32 12.87L21.29 12.87L21.29 7.48L19.32 7.48L19.32 6.59L22.27 6.59ZM28.39 16.10L27.41 16.59L27.41 6.59L28.39 6.59L28.39 7.24L28.39 7.24Q28.81 6.85 29.26 6.64L29.26 6.64L29.26 6.64Q29.71 6.43 30.39 6.43L30.39 6.43L30.39 6.43Q31.84 6.43 32.67 7.44L32.67 7.44L32.67 7.44Q33.50 8.46 33.50 10.16L33.50 10.16L33.50 10.16Q33.50 11.93 32.66 12.92L32.66 12.92L32.66 12.92Q31.81 13.92 30.45 13.92L30.45 13.92L30.45 13.92Q29.16 13.92 28.39 13.02L28.39 13.02L28.39 16.10ZM30.34 13.03L30.34 13.03L30.34 13.03Q31.36 13.03 31.92 12.29L31.92 12.29L31.92 12.29Q32.48 11.55 32.48 10.16L32.48 10.16L32.48 10.16Q32.48 8.85 31.90 8.08L31.90 8.08L31.90 8.08Q31.32 7.31 30.28 7.31L30.28 7.31L30.28 7.31Q29.01 7.31 28.39 8.41L28.39 8.41L28.39 11.93L28.39 11.93Q29.25 13.03 30.34 13.03ZM39.49 4.94L39.49 4.94L39.49 4.94Q39.31 5.12 39.03 5.12L39.03 5.12L39.03 5.12Q38.75 5.12 38.57 4.94L38.57 4.94L38.57 4.94Q38.39 4.76 38.39 4.48L38.39 4.48L38.39 4.48Q38.39 4.20 38.58 4.00L38.58 4.00L38.58 4.00Q38.77 3.81 39.03 3.81L39.03 3.81L39.03 3.81Q39.31 3.81 39.49 4.00L39.49 4.00L39.49 4.00Q39.68 4.20 39.68 4.48L39.68 4.48L39.68 4.48Q39.68 4.76 39.49 4.94ZM39.52 6.59L39.52 12.87L41.50 12.87L41.50 13.75L36.57 13.75L36.57 12.87L38.54 12.87L38.54 7.48L36.57 7.48L36.57 6.59L39.52 6.59ZM48.55 4.69L48.55 4.69L48.55 4.69Q48.19 4.69 47.97 4.76L47.97 4.76L47.97 4.76Q47.75 4.83 47.66 4.99L47.66 4.99L47.66 4.99Q47.57 5.15 47.55 5.29L47.55 5.29L47.55 5.29Q47.53 5.42 47.53 5.67L47.53 5.67L47.53 6.59L49.43 6.59L49.43 7.48L47.53 7.48L47.53 12.87L49.43 12.87L49.43 13.75L45.07 13.75L45.07 12.87L46.55 12.87L46.55 7.48L45.07 7.48L45.07 6.59L46.55 6.59L46.55 5.52L46.55 5.52Q46.55 4.59 47.08 4.19L47.08 4.19L47.08 4.19Q47.60 3.78 48.45 3.78L48.45 3.78L48.45 3.78Q49.20 3.78 49.95 4.12L49.95 4.12L49.95 5.00L49.95 5.00Q49.31 4.69 48.55 4.69ZM55.48 16.46L54.52 16.46L55.58 13.52L52.96 6.59L53.96 6.59L55.76 11.68L55.76 11.68Q55.80 11.82 55.89 12.07L55.89 12.07L55.89 12.07Q55.97 12.32 56.00 12.40L56.00 12.40L56.25 11.68L58.09 6.59L59.14 6.59L55.48 16.46Z"></path></g><!----><g data-v-423bf9ae="" id="42ef05fa-59d4-4ccd-903a-4200e4c8a980" transform="matrix(1.1159389019012451,0,0,1.1159389019012451,83.2697525024414,-4.541945457458496)" stroke="none" fill="#666057"><path d="M58.478 26.77H21.38c-5.182 0-9.423 4.24-9.423 9.423v25.922c0 5.183 4.24 9.423 9.423 9.423h37.099c5.182 0 9.423-4.24 9.423-9.423V36.193c-.001-5.182-4.241-9.423-9.424-9.423zm-33.71 4.9c-3.613 1.936-6.221 4.771-7.854 6.968-.619.833-1.939.251-1.736-.766 1.244-6.215 5.653-7.783 9.059-8.024 1.04-.074 1.45 1.33.531 1.822zm46.658-14.378H57.717a20.6 20.6 0 0 0-6.759-3.508l5.172-5.171a2.306 2.306 0 1 0-3.262-3.262l-7.191 7.191a2.32 2.32 0 0 0-.303.374c-.125-.002-.249-.006-.374-.006s-.249.003-.373.005a2.32 2.32 0 0 0-.303-.374L37.133 5.35a2.306 2.306 0 1 0-3.262 3.262l5.172 5.171a20.59 20.59 0 0 0-6.759 3.508h-13.71c-8.848 0-16.087 7.239-16.087 16.087v31.55c0 8.848 7.239 16.087 16.087 16.087h.213v1.596a2.721 2.721 0 0 0 2.713 2.713h1.651a2.721 2.721 0 0 0 2.713-2.713v-1.596h38.272v.924a2.721 2.721 0 0 0 2.713 2.713H68.5a2.721 2.721 0 0 0 2.713-2.713v-.924h.213c8.848 0 16.087-7.239 16.087-16.087v-31.55c0-8.847-7.239-16.086-16.087-16.086zm-51.15 57.666c-6.373 0-11.586-5.214-11.586-11.586V35.163c0-6.373 5.214-11.586 11.586-11.586h39.306c6.373 0 11.587 5.214 11.587 11.586v28.209c0 6.373-5.214 11.586-11.587 11.586H20.276zm58.743-15.554a2.562 2.562 0 1 1 0-5.124 2.562 2.562 0 0 1 0 5.124zm0-7.687a2.562 2.562 0 1 1 0-5.124 2.562 2.562 0 0 1 0 5.124zm0-7.688a2.562 2.562 0 1 1 0-5.124 2.562 2.562 0 0 1 0 5.124z"></path></g><!----></svg>